<?xml version="1.0" encoding="UTF-8"?>
<svg id="Layer_1" xmlns="http://www.w3.org/2000/svg" version="1.1" viewBox="32 194 462 66">
  <!-- Generator: Adobe Illustrator 30.2.1, SVG Export Plug-In . SVG Version: 2.1.1 Build 1)  -->
  <g>
    <path d="M43.82,196.67l5.04,22.5h-3.03l-1.17-5.52h-6.18l-1.17,5.52h-3.03l5.04-22.5h4.5ZM44.06,210.89l-2.49-11.82-2.49,11.82h4.98Z"/>
    <path d="M51.56,219.16v-22.5h9.96v2.76h-6.96v19.74h-3Z"/>
    <path d="M74.78,219.16h-10.08v-22.5h10.08v2.76h-7.08v6.78h6.48v2.76h-6.48v7.44h7.08v2.76Z"/>
    <path d="M78.44,219.16v-22.5h3v9.54h7.26v-9.54h3v22.5h-3v-10.2h-7.26v10.2h-3Z"/>
    <path d="M99.05,219.16v-19.74h-4.71v-2.76h12.42v2.76h-4.71v19.74h-3Z"/>
    <path d="M122.21,210.58v1.2c0,5.13-2.49,7.68-6.63,7.68s-6.63-2.55-6.63-7.68v-7.74c0-5.13,2.49-7.68,6.63-7.68s6.63,2.55,6.63,7.68v.9h-3v-.9c0-3.6-1.35-4.92-3.63-4.92s-3.63,1.32-3.63,4.92v7.74c0,3.6,1.35,4.92,3.63,4.92s3.63-1.32,3.63-4.92v-1.2h3Z"/>
    <path d="M129.11,219.16v-19.74h-4.71v-2.76h12.42v2.76h-4.71v19.74h-3Z"/>
    <path d="M139.46,196.67h6.15c3.69,0,6.21,1.92,6.21,5.52v.3c0,2.31-1.11,3.75-2.88,4.53,2.1.81,3.48,2.55,3.48,5.25v.6c0,4.08-2.52,6.3-6.21,6.3h-6.75v-22.5ZM142.46,199.43v6.57h2.91c2.13,0,3.45-.93,3.45-3.27v-.3c0-2.1-1.26-3-3.51-3h-2.85ZM142.46,208.72v7.68h3.45c2.25,0,3.51-1.14,3.51-3.81v-.3c0-2.58-1.32-3.57-3.51-3.57h-3.45Z"/>
    <path d="M155.78,211.78v-7.74c0-5.13,2.49-7.68,6.63-7.68s6.63,2.55,6.63,7.68v7.74c0,5.16-2.49,7.68-6.63,7.68s-6.63-2.52-6.63-7.68ZM166.04,211.78v-7.74c0-3.6-1.35-4.92-3.63-4.92s-3.63,1.32-3.63,4.92v7.74c0,3.63,1.35,4.92,3.63,4.92s3.63-1.29,3.63-4.92Z"/>
    <path d="M193.28,210.58v1.2c0,5.13-2.49,7.68-6.63,7.68s-6.63-2.55-6.63-7.68v-7.74c0-5.13,2.49-7.68,6.63-7.68s6.63,2.55,6.63,7.68v.9h-3v-.9c0-3.6-1.35-4.92-3.63-4.92s-3.63,1.32-3.63,4.92v7.74c0,3.6,1.35,4.92,3.63,4.92s3.63-1.32,3.63-4.92v-1.2h3Z"/>
    <path d="M200.18,219.16v-19.74h-4.71v-2.76h12.42v2.76h-4.71v19.74h-3Z"/>
    <path d="M217.31,196.67l5.04,22.5h-3.03l-1.17-5.52h-6.18l-1.17,5.52h-3.03l5.04-22.5h4.5ZM217.55,210.89l-2.49-11.82-2.49,11.82h4.98Z"/>
    <path d="M225.05,219.16v-22.5h3v9.54h7.26v-9.54h3v22.5h-3v-10.2h-7.26v10.2h-3Z"/>
    <path d="M241.07,216.4h1.59c1.23-2.37,1.68-5.7,1.59-19.74h11.82v19.74h2.1v6.81h-2.76v-4.05h-11.58v4.05h-2.76v-6.81ZM245.51,216.4h7.56v-16.98h-6.06c-.03,8.37-.21,11.73-.66,14.16-.21,1.11-.42,1.98-.84,2.82Z"/>
    <path d="M269.42,196.67l5.04,22.5h-3.03l-1.17-5.52h-6.18l-1.17,5.52h-3.03l5.04-22.5h4.5ZM269.66,210.89l-2.49-11.82-2.49,11.82h4.98Z"/>
    <path d="M277.16,219.16v-22.5h6.51c3.63,0,6.21,2.07,6.21,6v1.62c0,4.08-2.58,6.3-6.21,6.3h-3.51v8.58h-3ZM280.16,199.43v8.4h3.21c2.16,0,3.51-1.11,3.51-3.84v-1.02c0-2.55-1.35-3.54-3.51-3.54h-3.21Z"/>
    <path d="M295.97,219.16v-19.74h-4.71v-2.76h12.42v2.76h-4.71v19.74h-3Z"/>
    <path d="M305.87,211.78v-7.74c0-5.13,2.49-7.68,6.63-7.68s6.63,2.55,6.63,7.68v7.74c0,5.16-2.49,7.68-6.63,7.68s-6.63-2.52-6.63-7.68ZM316.13,211.78v-7.74c0-3.6-1.35-4.92-3.63-4.92s-3.63,1.32-3.63,4.92v7.74c0,3.63,1.35,4.92,3.63,4.92s3.63-1.29,3.63-4.92Z"/>
    <path d="M323.39,196.67h6.15c3.69,0,6.21,1.92,6.21,5.52v.3c0,2.31-1.11,3.75-2.88,4.53,2.1.81,3.48,2.55,3.48,5.25v.6c0,4.08-2.52,6.3-6.21,6.3h-6.75v-22.5ZM326.39,199.43v6.57h2.91c2.13,0,3.45-.93,3.45-3.27v-.3c0-2.1-1.26-3-3.51-3h-2.85ZM326.39,208.72v7.68h3.45c2.25,0,3.51-1.14,3.51-3.81v-.3c0-2.58-1.32-3.57-3.51-3.57h-3.45Z"/>
    <path d="M347.03,219.16v-22.5h3v9.54h7.26v-9.54h3v22.5h-3v-10.2h-7.26v10.2h-3Z"/>
    <path d="M372.53,196.67l5.04,22.5h-3.03l-1.17-5.52h-6.18l-1.17,5.52h-3.03l5.04-22.5h4.5ZM372.77,210.89l-2.49-11.82-2.49,11.82h4.98Z"/>
    <path d="M380.27,196.67h6.15c3.69,0,6.21,1.92,6.21,5.52v.3c0,2.31-1.11,3.75-2.88,4.53,2.1.81,3.48,2.55,3.48,5.25v.6c0,4.08-2.52,6.3-6.21,6.3h-6.75v-22.5ZM383.27,199.43v6.57h2.91c2.13,0,3.45-.93,3.45-3.27v-.3c0-2.1-1.26-3-3.51-3h-2.85ZM383.27,208.72v7.68h3.45c2.25,0,3.51-1.14,3.51-3.81v-.3c0-2.58-1.32-3.57-3.51-3.57h-3.45Z"/>
    <path d="M410.2,196.67v22.5h-2.76v-19.65l-6.18,19.65h-4.38v-22.5h2.76v19.65l6.18-19.65h4.38Z"/>
    <path d="M414.76,219.16v-22.5h9.96v2.76h-6.96v19.74h-3Z"/>
    <path d="M433.42,196.67l5.04,22.5h-3.03l-1.17-5.52h-6.18l-1.17,5.52h-3.03l5.04-22.5h4.5ZM433.67,210.89l-2.49-11.82-2.49,11.82h4.98Z"/>
    <path d="M453.59,219.16h-12.42v-22.5h3v19.74h7.08v-19.74h3v19.74h2.1v6.81h-2.76v-4.05Z"/>
    <path d="M472.81,196.67v22.5h-2.76v-19.65l-6.18,19.65h-4.38v-22.5h2.76v19.65l6.18-19.65h4.38Z"/>
    <path d="M490.69,196.67v22.5h-2.76v-19.65l-6.18,19.65h-4.38v-22.5h2.76v19.65l6.18-19.65h4.38Z"/>
    <path d="M49.46,231.17v22.5h-2.76v-19.65l-6.18,19.65h-4.38v-22.5h2.76v19.65l6.18-19.65h4.38Z"/>
    <path d="M61.04,231.17h6.15c3.69,0,6.21,1.92,6.21,5.52v.3c0,2.31-1.11,3.75-2.88,4.53,2.1.81,3.48,2.55,3.48,5.25v.6c0,4.08-2.52,6.3-6.21,6.3h-6.75v-22.5ZM64.04,233.93v6.57h2.91c2.13,0,3.45-.93,3.45-3.27v-.3c0-2.1-1.26-3-3.51-3h-2.85ZM64.04,243.22v7.68h3.45c2.25,0,3.51-1.14,3.51-3.81v-.3c0-2.58-1.32-3.57-3.51-3.57h-3.45Z"/>
    <path d="M90.98,231.17v22.5h-2.76v-19.65l-6.18,19.65h-4.38v-22.5h2.76v19.65l6.18-19.65h4.38Z"/>
    <path d="M99.38,243.47v-2.76h1.89c1.74,0,2.67-1.08,2.67-3.54v-.21c0-2.16-1.05-3.33-2.88-3.33s-3.15.96-3.15,3.45v.9h-3v-.99c0-4.14,2.85-6.12,6.15-6.12,3.09,0,5.88,1.65,5.88,5.7v.3c0,2.25-.9,3.87-2.31,4.77,1.77.93,2.91,2.73,2.91,5.37v.54c0,4.53-2.85,6.42-6.39,6.42s-6.48-1.89-6.48-6.42v-1.44h3v1.2c0,2.73,1.53,3.9,3.48,3.9,2.1,0,3.39-1.11,3.39-3.84v-.24c0-2.43-.87-3.66-3.15-3.66h-2.01Z"/>
    <path d="M113.06,253.96c-.84,0-1.65-.15-2.22-.33v-2.67c.66.18,1.11.24,1.68.24,1.05,0,1.77-.33,2.37-1.47l-5.88-18.57h3.09l4.17,14.34,3.81-14.34h3.03l-4.83,16.77c-1.08,3.84-2.25,6.03-5.22,6.03Z"/>
    <path d="M132.38,231.17l5.04,22.5h-3.03l-1.17-5.52h-6.18l-1.17,5.52h-3.03l5.04-22.5h4.5ZM132.62,245.39l-2.49-11.82-2.49,11.82h4.98Z"/>
    <path d="M150.44,253.66v-19.74h-6c-.03,7.53-.15,12.18-.57,15.21-.45,3.39-1.62,4.53-4.41,4.53h-.45v-2.76h.18c1.17,0,1.62-.75,1.95-1.95.42-1.8.54-7.65.54-17.79h11.76v22.5h-3Z"/>
    <path d="M161,239.26h2.91c4.29,0,6.75,2.58,6.75,6.54v1.14c0,3.87-2.46,6.72-6.75,6.72h-5.91v-22.5h3v8.1ZM161,242.02v8.88h2.46c3.03,0,4.2-1.53,4.2-4.26v-.54c0-2.58-1.17-4.08-4.2-4.08h-2.46Z"/>
    <path d="M173.72,253.66v-22.5h3v9.54h7.26v-9.54h3v22.5h-3v-10.2h-7.26v10.2h-3Z"/>
    <path d="M191.24,246.28v-7.74c0-5.13,2.49-7.68,6.63-7.68s6.63,2.55,6.63,7.68v7.74c0,5.16-2.49,7.68-6.63,7.68s-6.63-2.52-6.63-7.68ZM201.5,246.28v-7.74c0-3.6-1.35-4.92-3.63-4.92s-3.63,1.32-3.63,4.92v7.74c0,3.63,1.35,4.92,3.63,4.92s3.63-1.29,3.63-4.92Z"/>
    <path d="M222.08,231.17v22.5h-2.76v-19.65l-6.18,19.65h-4.38v-22.5h2.76v19.65l6.18-19.65h4.38ZM220.01,224.57c0,2.82-1.83,4.5-4.53,4.5s-4.5-1.68-4.5-4.5h2.4c0,1.68.99,2.37,2.1,2.37,1.2,0,2.13-.69,2.13-2.37h2.4Z"/>
    <path d="M246.62,245.08v1.2c0,5.13-2.49,7.68-6.63,7.68s-6.63-2.55-6.63-7.68v-7.74c0-5.13,2.49-7.68,6.63-7.68s6.63,2.55,6.63,7.68v.9h-3v-.9c0-3.6-1.35-4.92-3.63-4.92s-3.63,1.32-3.63,4.92v7.74c0,3.6,1.35,4.92,3.63,4.92s3.63-1.32,3.63-4.92v-1.2h3Z"/>
    <path d="M250.88,253.66v-22.5h6.51c3.63,0,6.21,2.07,6.21,6v1.62c0,4.08-2.58,6.3-6.21,6.3h-3.51v8.58h-3ZM253.88,233.93v8.4h3.21c2.16,0,3.51-1.11,3.51-3.84v-1.02c0-2.55-1.35-3.54-3.51-3.54h-3.21Z"/>
    <path d="M276.98,253.66h-10.08v-22.5h10.08v2.76h-7.08v6.78h6.48v2.76h-6.48v7.44h7.08v2.76Z"/>
    <path d="M278.84,250.9h1.59c1.23-2.37,1.68-5.7,1.59-19.74h11.82v19.74h2.1v6.81h-2.76v-4.05h-11.58v4.05h-2.76v-6.81ZM283.28,250.9h7.56v-16.98h-6.06c-.03,8.37-.21,11.73-.66,14.16-.21,1.11-.42,1.98-.84,2.82Z"/>
    <path d="M302.09,239.26h2.91c4.29,0,6.75,2.58,6.75,6.54v1.14c0,3.87-2.46,6.72-6.75,6.72h-5.91v-22.5h3v8.1ZM302.09,242.02v8.88h2.46c3.03,0,4.2-1.53,4.2-4.26v-.54c0-2.58-1.17-4.08-4.2-4.08h-2.46ZM314.24,253.66v-22.5h3v22.5h-3Z"/>
  </g>
  <g>
    <path d="M34.42,89.17h17v10.5h36.5v-10.5h-28.5v-13h26.5v-10.5h-34.5v10.5h-17c.2-10.2,3.1-25.5,36.6-25.5,24.6,0,31.4,8.1,31.4,17.8,0,8.5-7.2,13.1-12.5,13.2,6.3,0,14.5,4.9,14.5,14.2,0,11.5-8.6,18.8-36.3,18.8-33.8,0-33.7-17.8-33.7-25.5Z"/>
    <path d="M146.42,114.67c-24.2,0-38.5-12.5-38.5-32s14.3-32,38.5-32,38.5,12.5,38.5,32-14.3,32-38.5,32ZM126.42,67.57v30.2h40v-30.2h-40Z"/>
    <path d="M239.92,68.67h-28.7c-.2,7-.4,19.2-1.1,27.6-1,13-3.6,17.9-18.9,17.9h-6.3v-15.3h9c.5-2.3.8-10.1,1.1-19.8.3-9.1.4-18.7.4-26.4h60.5v60h-16v-44Z"/>
    <path d="M300.42,114.67c-24.2,0-38.5-12.5-38.5-32s14.3-32,38.5-32,38.5,12.5,38.5,32-14.3,32-38.5,32ZM280.42,67.57v30.2h40v-30.2h-40Z"/>
    <path d="M367.42,68.67h-28v-16h72.4v16h-28v44h-16.4v-44Z"/>
    <path d="M450.82,114.67c-24.2,0-38.5-12.5-38.5-32s14.3-32,38.5-32,38.5,12.5,38.5,32-14.3,32-38.5,32ZM430.82,67.57v30.2h40v-30.2h-40Z"/>
    <path d="M36.92,124.67h60v16h-43.6v44h-16.4v-60Z"/>
    <path d="M169.72,146.37c0,13.7-9.2,22.7-26,22.7h-26v15.6h-16v-60h42c16.8,0,26,7.7,26,21.7ZM152.22,139.57h-34.5v14.6h34.5v-14.6Z"/>
    <path d="M203.12,157.67h-18l-17.9-33h20.9l16.4,30.5,17.1-30.5h19.4l-33.6,60h-19.4l15.1-27Z"/>
    <path d="M243.82,124.67h68.3v60h-16.4v-44h-35.5v44h-16.4v-60Z"/>
    <path d="M320.12,124.67h68.3v60h-16.4v-44h-35.5v44h-16.4v-60Z"/>
  </g>
</svg>